<svg width="160" height="154" viewBox="0 0 160 154" fill="none" xmlns="http://www.w3.org/2000/svg">
<g opacity="0.1" clip-path="url(#clip0_188_9061)">
<path d="M15.4586 1.54169H7.65311C7.24656 1.54169 6.91699 1.87126 6.91699 2.27781C6.91699 2.68436 7.24656 3.01393 7.65311 3.01393H15.4586C15.8652 3.01393 16.1948 2.68436 16.1948 2.27781C16.1948 1.87126 15.8652 1.54169 15.4586 1.54169Z" fill="white"/>
<path d="M12.2916 -1.62497C12.2916 -2.03151 11.962 -2.36108 11.5555 -2.36108C11.1489 -2.36108 10.8193 -2.03151 10.8193 -1.62497V6.18057C10.8193 6.58712 11.1489 6.91669 11.5555 6.91669C11.962 6.91669 12.2916 6.58712 12.2916 6.18057V-1.62497Z" fill="white"/>
<path d="M34.0143 1.54169H26.2088C25.8022 1.54169 25.4727 1.87126 25.4727 2.27781C25.4727 2.68436 25.8022 3.01393 26.2088 3.01393H34.0143C34.4209 3.01393 34.7504 2.68436 34.7504 2.27781C34.7504 1.87126 34.4209 1.54169 34.0143 1.54169Z" fill="white"/>
<path d="M30.8472 -1.62497C30.8472 -2.03151 30.5177 -2.36108 30.1111 -2.36108C29.7046 -2.36108 29.375 -2.03151 29.375 -1.62497V6.18057C29.375 6.58712 29.7046 6.91669 30.1111 6.91669C30.5177 6.91669 30.8472 6.58712 30.8472 6.18057V-1.62497Z" fill="white"/>
<path d="M52.57 1.54169H44.7644C44.3579 1.54169 44.0283 1.87126 44.0283 2.27781C44.0283 2.68436 44.3579 3.01393 44.7644 3.01393H52.57C52.9765 3.01393 53.3061 2.68436 53.3061 2.27781C53.3061 1.87126 52.9765 1.54169 52.57 1.54169Z" fill="white"/>
<path d="M49.4029 -1.62497C49.4029 -2.03151 49.0733 -2.36108 48.6668 -2.36108C48.2602 -2.36108 47.9307 -2.03151 47.9307 -1.62497V6.18057C47.9307 6.58712 48.2602 6.91669 48.6668 6.91669C49.0733 6.91669 49.4029 6.58712 49.4029 6.18057V-1.62497Z" fill="white"/>
<path d="M71.1256 1.54169H63.3201C62.9135 1.54169 62.584 1.87126 62.584 2.27781C62.584 2.68436 62.9135 3.01393 63.3201 3.01393H71.1256C71.5322 3.01393 71.8618 2.68436 71.8618 2.27781C71.8618 1.87126 71.5322 1.54169 71.1256 1.54169Z" fill="white"/>
<path d="M67.9586 -1.62497C67.9586 -2.03151 67.629 -2.36108 67.2224 -2.36108C66.8159 -2.36108 66.4863 -2.03151 66.4863 -1.62497V6.18057C66.4863 6.58712 66.8159 6.91669 67.2224 6.91669C67.629 6.91669 67.9586 6.58712 67.9586 6.18057V-1.62497Z" fill="white"/>
<path d="M89.6803 1.54169H81.8748C81.4683 1.54169 81.1387 1.87126 81.1387 2.27781C81.1387 2.68436 81.4683 3.01393 81.8748 3.01393H89.6803C90.0869 3.01393 90.4165 2.68436 90.4165 2.27781C90.4165 1.87126 90.0869 1.54169 89.6803 1.54169Z" fill="white"/>
<path d="M86.5142 -1.62497C86.5142 -2.03151 86.1847 -2.36108 85.7781 -2.36108C85.3716 -2.36108 85.042 -2.03151 85.042 -1.62497V6.18057C85.042 6.58712 85.3716 6.91669 85.7781 6.91669C86.1847 6.91669 86.5142 6.58712 86.5142 6.18057V-1.62497Z" fill="white"/>
<path d="M108.236 1.54169H100.43C100.024 1.54169 99.6943 1.87126 99.6943 2.27781C99.6943 2.68436 100.024 3.01393 100.43 3.01393H108.236C108.643 3.01393 108.972 2.68436 108.972 2.27781C108.972 1.87126 108.643 1.54169 108.236 1.54169Z" fill="white"/>
<path d="M105.07 -1.62497C105.07 -2.03151 104.74 -2.36108 104.334 -2.36108C103.927 -2.36108 103.598 -2.03151 103.598 -1.62497V6.18057C103.598 6.58712 103.927 6.91669 104.334 6.91669C104.74 6.91669 105.07 6.58712 105.07 6.18057V-1.62497Z" fill="white"/>
<path d="M126.792 1.54169H118.986C118.58 1.54169 118.25 1.87126 118.25 2.27781C118.25 2.68436 118.58 3.01393 118.986 3.01393H126.792C127.198 3.01393 127.528 2.68436 127.528 2.27781C127.528 1.87126 127.198 1.54169 126.792 1.54169Z" fill="white"/>
<path d="M123.626 -1.62497C123.626 -2.03151 123.296 -2.36108 122.889 -2.36108C122.483 -2.36108 122.153 -2.03151 122.153 -1.62497V6.18057C122.153 6.58712 122.483 6.91669 122.889 6.91669C123.296 6.91669 123.626 6.58712 123.626 6.18057V-1.62497Z" fill="white"/>
<path d="M145.347 1.54169H137.542C137.135 1.54169 136.806 1.87126 136.806 2.27781C136.806 2.68436 137.135 3.01393 137.542 3.01393H145.347C145.754 3.01393 146.083 2.68436 146.083 2.27781C146.083 1.87126 145.754 1.54169 145.347 1.54169Z" fill="white"/>
<path d="M142.181 -1.62497C142.181 -2.03151 141.852 -2.36108 141.445 -2.36108C141.039 -2.36108 140.709 -2.03151 140.709 -1.62497V6.18057C140.709 6.58712 141.039 6.91669 141.445 6.91669C141.852 6.91669 142.181 6.58712 142.181 6.18057V-1.62497Z" fill="white"/>
<path d="M163.903 1.54169H156.097C155.691 1.54169 155.361 1.87126 155.361 2.27781C155.361 2.68436 155.691 3.01393 156.097 3.01393H163.903C164.31 3.01393 164.639 2.68436 164.639 2.27781C164.639 1.87126 164.31 1.54169 163.903 1.54169Z" fill="white"/>
<path d="M160.736 -1.62497C160.736 -2.03151 160.406 -2.36108 160 -2.36108C159.593 -2.36108 159.264 -2.03151 159.264 -1.62497V6.18057C159.264 6.58712 159.593 6.91669 160 6.91669C160.406 6.91669 160.736 6.58712 160.736 6.18057V-1.62497Z" fill="white"/>
<path d="M15.4586 20.0972H7.65311C7.24656 20.0972 6.91699 20.4268 6.91699 20.8333C6.91699 21.2399 7.24656 21.5695 7.65311 21.5695H15.4586C15.8652 21.5695 16.1948 21.2399 16.1948 20.8333C16.1948 20.4268 15.8652 20.0972 15.4586 20.0972Z" fill="white"/>
<path d="M12.2916 16.9306C12.2916 16.524 11.962 16.1945 11.5555 16.1945C11.1489 16.1945 10.8193 16.524 10.8193 16.9306V24.7361C10.8193 25.1427 11.1489 25.4722 11.5555 25.4722C11.962 25.4722 12.2916 25.1427 12.2916 24.7361V16.9306Z" fill="white"/>
<path d="M34.0143 20.0972H26.2088C25.8022 20.0972 25.4727 20.4268 25.4727 20.8333C25.4727 21.2399 25.8022 21.5695 26.2088 21.5695H34.0143C34.4209 21.5695 34.7504 21.2399 34.7504 20.8333C34.7504 20.4268 34.4209 20.0972 34.0143 20.0972Z" fill="white"/>
<path d="M30.8472 16.9306C30.8472 16.524 30.5177 16.1945 30.1111 16.1945C29.7046 16.1945 29.375 16.524 29.375 16.9306V24.7361C29.375 25.1427 29.7046 25.4722 30.1111 25.4722C30.5177 25.4722 30.8472 25.1427 30.8472 24.7361V16.9306Z" fill="white"/>
<path d="M52.57 20.0972H44.7644C44.3579 20.0972 44.0283 20.4268 44.0283 20.8333C44.0283 21.2399 44.3579 21.5695 44.7644 21.5695H52.57C52.9765 21.5695 53.3061 21.2399 53.3061 20.8333C53.3061 20.4268 52.9765 20.0972 52.57 20.0972Z" fill="white"/>
<path d="M49.4029 16.9306C49.4029 16.524 49.0733 16.1945 48.6668 16.1945C48.2602 16.1945 47.9307 16.524 47.9307 16.9306V24.7361C47.9307 25.1427 48.2602 25.4722 48.6668 25.4722C49.0733 25.4722 49.4029 25.1427 49.4029 24.7361V16.9306Z" fill="white"/>
<path d="M71.1256 20.0972H63.3201C62.9135 20.0972 62.584 20.4268 62.584 20.8333C62.584 21.2399 62.9135 21.5695 63.3201 21.5695H71.1256C71.5322 21.5695 71.8618 21.2399 71.8618 20.8333C71.8618 20.4268 71.5322 20.0972 71.1256 20.0972Z" fill="white"/>
<path d="M67.9586 16.9306C67.9586 16.524 67.629 16.1945 67.2224 16.1945C66.8159 16.1945 66.4863 16.524 66.4863 16.9306V24.7361C66.4863 25.1427 66.8159 25.4722 67.2224 25.4722C67.629 25.4722 67.9586 25.1427 67.9586 24.7361V16.9306Z" fill="white"/>
<path d="M89.6803 20.0972H81.8748C81.4683 20.0972 81.1387 20.4268 81.1387 20.8333C81.1387 21.2399 81.4683 21.5695 81.8748 21.5695H89.6803C90.0869 21.5695 90.4165 21.2399 90.4165 20.8333C90.4165 20.4268 90.0869 20.0972 89.6803 20.0972Z" fill="white"/>
<path d="M86.5142 16.9306C86.5142 16.524 86.1847 16.1945 85.7781 16.1945C85.3716 16.1945 85.042 16.524 85.042 16.9306V24.7361C85.042 25.1427 85.3716 25.4722 85.7781 25.4722C86.1847 25.4722 86.5142 25.1427 86.5142 24.7361V16.9306Z" fill="white"/>
<path d="M108.236 20.0972H100.43C100.024 20.0972 99.6943 20.4268 99.6943 20.8333C99.6943 21.2399 100.024 21.5695 100.43 21.5695H108.236C108.643 21.5695 108.972 21.2399 108.972 20.8333C108.972 20.4268 108.643 20.0972 108.236 20.0972Z" fill="white"/>
<path d="M105.07 16.9306C105.07 16.524 104.74 16.1945 104.334 16.1945C103.927 16.1945 103.598 16.524 103.598 16.9306V24.7361C103.598 25.1427 103.927 25.4722 104.334 25.4722C104.74 25.4722 105.07 25.1427 105.07 24.7361V16.9306Z" fill="white"/>
<path d="M126.792 20.0972H118.986C118.58 20.0972 118.25 20.4268 118.25 20.8333C118.25 21.2399 118.58 21.5695 118.986 21.5695H126.792C127.198 21.5695 127.528 21.2399 127.528 20.8333C127.528 20.4268 127.198 20.0972 126.792 20.0972Z" fill="white"/>
<path d="M123.626 16.9306C123.626 16.524 123.296 16.1945 122.889 16.1945C122.483 16.1945 122.153 16.524 122.153 16.9306V24.7361C122.153 25.1427 122.483 25.4722 122.889 25.4722C123.296 25.4722 123.626 25.1427 123.626 24.7361V16.9306Z" fill="white"/>
<path d="M145.347 20.0972H137.542C137.135 20.0972 136.806 20.4268 136.806 20.8333C136.806 21.2399 137.135 21.5695 137.542 21.5695H145.347C145.754 21.5695 146.083 21.2399 146.083 20.8333C146.083 20.4268 145.754 20.0972 145.347 20.0972Z" fill="white"/>
<path d="M142.181 16.9306C142.181 16.524 141.852 16.1945 141.445 16.1945C141.039 16.1945 140.709 16.524 140.709 16.9306V24.7361C140.709 25.1427 141.039 25.4722 141.445 25.4722C141.852 25.4722 142.181 25.1427 142.181 24.7361V16.9306Z" fill="white"/>
<path d="M163.903 20.0972H156.097C155.691 20.0972 155.361 20.4268 155.361 20.8333C155.361 21.2399 155.691 21.5695 156.097 21.5695H163.903C164.31 21.5695 164.639 21.2399 164.639 20.8333C164.639 20.4268 164.31 20.0972 163.903 20.0972Z" fill="white"/>
<path d="M160.736 16.9306C160.736 16.524 160.406 16.1945 160 16.1945C159.593 16.1945 159.264 16.524 159.264 16.9306V24.7361C159.264 25.1427 159.593 25.4722 160 25.4722C160.406 25.4722 160.736 25.1427 160.736 24.7361V16.9306Z" fill="white"/>
<path d="M15.4586 38.6528H7.65311C7.24656 38.6528 6.91699 38.9823 6.91699 39.3889C6.91699 39.7954 7.24656 40.125 7.65311 40.125H15.4586C15.8652 40.125 16.1948 39.7954 16.1948 39.3889C16.1948 38.9823 15.8652 38.6528 15.4586 38.6528Z" fill="white"/>
<path d="M12.2916 35.4861C12.2916 35.0796 11.962 34.75 11.5555 34.75C11.1489 34.75 10.8193 35.0796 10.8193 35.4861V43.2917C10.8193 43.6982 11.1489 44.0278 11.5555 44.0278C11.962 44.0278 12.2916 43.6982 12.2916 43.2917V35.4861Z" fill="white"/>
<path d="M34.0143 38.6528H26.2088C25.8022 38.6528 25.4727 38.9823 25.4727 39.3889C25.4727 39.7954 25.8022 40.125 26.2088 40.125H34.0143C34.4209 40.125 34.7504 39.7954 34.7504 39.3889C34.7504 38.9823 34.4209 38.6528 34.0143 38.6528Z" fill="white"/>
<path d="M30.8472 35.4861C30.8472 35.0796 30.5177 34.75 30.1111 34.75C29.7046 34.75 29.375 35.0796 29.375 35.4861V43.2917C29.375 43.6982 29.7046 44.0278 30.1111 44.0278C30.5177 44.0278 30.8472 43.6982 30.8472 43.2917V35.4861Z" fill="white"/>
<path d="M52.57 38.6528H44.7644C44.3579 38.6528 44.0283 38.9823 44.0283 39.3889C44.0283 39.7954 44.3579 40.125 44.7644 40.125H52.57C52.9765 40.125 53.3061 39.7954 53.3061 39.3889C53.3061 38.9823 52.9765 38.6528 52.57 38.6528Z" fill="white"/>
<path d="M49.4029 35.4861C49.4029 35.0796 49.0733 34.75 48.6668 34.75C48.2602 34.75 47.9307 35.0796 47.9307 35.4861V43.2917C47.9307 43.6982 48.2602 44.0278 48.6668 44.0278C49.0733 44.0278 49.4029 43.6982 49.4029 43.2917V35.4861Z" fill="white"/>
<path d="M71.1256 38.6528H63.3201C62.9135 38.6528 62.584 38.9823 62.584 39.3889C62.584 39.7954 62.9135 40.125 63.3201 40.125H71.1256C71.5322 40.125 71.8618 39.7954 71.8618 39.3889C71.8618 38.9823 71.5322 38.6528 71.1256 38.6528Z" fill="white"/>
<path d="M67.9586 35.4861C67.9586 35.0796 67.629 34.75 67.2224 34.75C66.8159 34.75 66.4863 35.0796 66.4863 35.4861V43.2917C66.4863 43.6982 66.8159 44.0278 67.2224 44.0278C67.629 44.0278 67.9586 43.6982 67.9586 43.2917V35.4861Z" fill="white"/>
<path d="M89.6803 38.6528H81.8748C81.4683 38.6528 81.1387 38.9823 81.1387 39.3889C81.1387 39.7954 81.4683 40.125 81.8748 40.125H89.6803C90.0869 40.125 90.4165 39.7954 90.4165 39.3889C90.4165 38.9823 90.0869 38.6528 89.6803 38.6528Z" fill="white"/>
<path d="M86.5142 35.4861C86.5142 35.0796 86.1847 34.75 85.7781 34.75C85.3716 34.75 85.042 35.0796 85.042 35.4861V43.2917C85.042 43.6982 85.3716 44.0278 85.7781 44.0278C86.1847 44.0278 86.5142 43.6982 86.5142 43.2917V35.4861Z" fill="white"/>
<path d="M108.236 38.6528H100.43C100.024 38.6528 99.6943 38.9823 99.6943 39.3889C99.6943 39.7954 100.024 40.125 100.43 40.125H108.236C108.643 40.125 108.972 39.7954 108.972 39.3889C108.972 38.9823 108.643 38.6528 108.236 38.6528Z" fill="white"/>
<path d="M105.07 35.4861C105.07 35.0796 104.74 34.75 104.334 34.75C103.927 34.75 103.598 35.0796 103.598 35.4861V43.2917C103.598 43.6982 103.927 44.0278 104.334 44.0278C104.74 44.0278 105.07 43.6982 105.07 43.2917V35.4861Z" fill="white"/>
<path d="M126.792 38.6528H118.986C118.58 38.6528 118.25 38.9823 118.25 39.3889C118.25 39.7954 118.58 40.125 118.986 40.125H126.792C127.198 40.125 127.528 39.7954 127.528 39.3889C127.528 38.9823 127.198 38.6528 126.792 38.6528Z" fill="white"/>
<path d="M123.626 35.4861C123.626 35.0796 123.296 34.75 122.889 34.75C122.483 34.75 122.153 35.0796 122.153 35.4861V43.2917C122.153 43.6982 122.483 44.0278 122.889 44.0278C123.296 44.0278 123.626 43.6982 123.626 43.2917V35.4861Z" fill="white"/>
<path d="M145.347 38.6528H137.542C137.135 38.6528 136.806 38.9823 136.806 39.3889C136.806 39.7954 137.135 40.125 137.542 40.125H145.347C145.754 40.125 146.083 39.7954 146.083 39.3889C146.083 38.9823 145.754 38.6528 145.347 38.6528Z" fill="white"/>
<path d="M142.181 35.4861C142.181 35.0796 141.852 34.75 141.445 34.75C141.039 34.75 140.709 35.0796 140.709 35.4861V43.2917C140.709 43.6982 141.039 44.0278 141.445 44.0278C141.852 44.0278 142.181 43.6982 142.181 43.2917V35.4861Z" fill="white"/>
<path d="M163.903 38.6528H156.097C155.691 38.6528 155.361 38.9823 155.361 39.3889C155.361 39.7954 155.691 40.125 156.097 40.125H163.903C164.31 40.125 164.639 39.7954 164.639 39.3889C164.639 38.9823 164.31 38.6528 163.903 38.6528Z" fill="white"/>
<path d="M160.736 35.4861C160.736 35.0796 160.406 34.75 160 34.75C159.593 34.75 159.264 35.0796 159.264 35.4861V43.2917C159.264 43.6982 159.593 44.0278 160 44.0278C160.406 44.0278 160.736 43.6982 160.736 43.2917V35.4861Z" fill="white"/>
<path d="M15.4586 57.2083H7.65311C7.24656 57.2083 6.91699 57.5379 6.91699 57.9444C6.91699 58.351 7.24656 58.6806 7.65311 58.6806H15.4586C15.8652 58.6806 16.1948 58.351 16.1948 57.9444C16.1948 57.5379 15.8652 57.2083 15.4586 57.2083Z" fill="white"/>
<path d="M12.2916 54.0417C12.2916 53.6351 11.962 53.3055 11.5555 53.3055C11.1489 53.3055 10.8193 53.6351 10.8193 54.0417V61.8472C10.8193 62.2537 11.1489 62.5833 11.5555 62.5833C11.962 62.5833 12.2916 62.2537 12.2916 61.8472V54.0417Z" fill="white"/>
<path d="M34.0143 57.2083H26.2088C25.8022 57.2083 25.4727 57.5379 25.4727 57.9444C25.4727 58.351 25.8022 58.6806 26.2088 58.6806H34.0143C34.4209 58.6806 34.7504 58.351 34.7504 57.9444C34.7504 57.5379 34.4209 57.2083 34.0143 57.2083Z" fill="white"/>
<path d="M30.8472 54.0417C30.8472 53.6351 30.5177 53.3055 30.1111 53.3055C29.7046 53.3055 29.375 53.6351 29.375 54.0417V61.8472C29.375 62.2537 29.7046 62.5833 30.1111 62.5833C30.5177 62.5833 30.8472 62.2537 30.8472 61.8472V54.0417Z" fill="white"/>
<path d="M52.57 57.2083H44.7644C44.3579 57.2083 44.0283 57.5379 44.0283 57.9444C44.0283 58.351 44.3579 58.6806 44.7644 58.6806H52.57C52.9765 58.6806 53.3061 58.351 53.3061 57.9444C53.3061 57.5379 52.9765 57.2083 52.57 57.2083Z" fill="white"/>
<path d="M49.4029 54.0417C49.4029 53.6351 49.0733 53.3055 48.6668 53.3055C48.2602 53.3055 47.9307 53.6351 47.9307 54.0417V61.8472C47.9307 62.2537 48.2602 62.5833 48.6668 62.5833C49.0733 62.5833 49.4029 62.2537 49.4029 61.8472V54.0417Z" fill="white"/>
<path d="M71.1256 57.2083H63.3201C62.9135 57.2083 62.584 57.5379 62.584 57.9444C62.584 58.351 62.9135 58.6806 63.3201 58.6806H71.1256C71.5322 58.6806 71.8618 58.351 71.8618 57.9444C71.8618 57.5379 71.5322 57.2083 71.1256 57.2083Z" fill="white"/>
<path d="M67.9586 54.0417C67.9586 53.6351 67.629 53.3055 67.2224 53.3055C66.8159 53.3055 66.4863 53.6351 66.4863 54.0417V61.8472C66.4863 62.2537 66.8159 62.5833 67.2224 62.5833C67.629 62.5833 67.9586 62.2537 67.9586 61.8472V54.0417Z" fill="white"/>
<path d="M89.6803 57.2083H81.8748C81.4683 57.2083 81.1387 57.5379 81.1387 57.9444C81.1387 58.351 81.4683 58.6806 81.8748 58.6806H89.6803C90.0869 58.6806 90.4165 58.351 90.4165 57.9444C90.4165 57.5379 90.0869 57.2083 89.6803 57.2083Z" fill="white"/>
<path d="M86.5142 54.0417C86.5142 53.6351 86.1847 53.3055 85.7781 53.3055C85.3716 53.3055 85.042 53.6351 85.042 54.0417V61.8472C85.042 62.2537 85.3716 62.5833 85.7781 62.5833C86.1847 62.5833 86.5142 62.2537 86.5142 61.8472V54.0417Z" fill="white"/>
<path d="M108.236 57.2083H100.43C100.024 57.2083 99.6943 57.5379 99.6943 57.9444C99.6943 58.351 100.024 58.6806 100.43 58.6806H108.236C108.643 58.6806 108.972 58.351 108.972 57.9444C108.972 57.5379 108.643 57.2083 108.236 57.2083Z" fill="white"/>
<path d="M105.07 54.0417C105.07 53.6351 104.74 53.3055 104.334 53.3055C103.927 53.3055 103.598 53.6351 103.598 54.0417V61.8472C103.598 62.2537 103.927 62.5833 104.334 62.5833C104.74 62.5833 105.07 62.2537 105.07 61.8472V54.0417Z" fill="white"/>
<path d="M126.792 57.2083H118.986C118.58 57.2083 118.25 57.5379 118.25 57.9444C118.25 58.351 118.58 58.6806 118.986 58.6806H126.792C127.198 58.6806 127.528 58.351 127.528 57.9444C127.528 57.5379 127.198 57.2083 126.792 57.2083Z" fill="white"/>
<path d="M123.626 54.0417C123.626 53.6351 123.296 53.3055 122.889 53.3055C122.483 53.3055 122.153 53.6351 122.153 54.0417V61.8472C122.153 62.2537 122.483 62.5833 122.889 62.5833C123.296 62.5833 123.626 62.2537 123.626 61.8472V54.0417Z" fill="white"/>
<path d="M145.347 57.2083H137.542C137.135 57.2083 136.806 57.5379 136.806 57.9444C136.806 58.351 137.135 58.6806 137.542 58.6806H145.347C145.754 58.6806 146.083 58.351 146.083 57.9444C146.083 57.5379 145.754 57.2083 145.347 57.2083Z" fill="white"/>
<path d="M142.181 54.0417C142.181 53.6351 141.852 53.3055 141.445 53.3055C141.039 53.3055 140.709 53.6351 140.709 54.0417V61.8472C140.709 62.2537 141.039 62.5833 141.445 62.5833C141.852 62.5833 142.181 62.2537 142.181 61.8472V54.0417Z" fill="white"/>
<path d="M163.903 57.2083H156.097C155.691 57.2083 155.361 57.5379 155.361 57.9444C155.361 58.351 155.691 58.6806 156.097 58.6806H163.903C164.31 58.6806 164.639 58.351 164.639 57.9444C164.639 57.5379 164.31 57.2083 163.903 57.2083Z" fill="white"/>
<path d="M160.736 54.0417C160.736 53.6351 160.406 53.3055 160 53.3055C159.593 53.3055 159.264 53.6351 159.264 54.0417V61.8472C159.264 62.2537 159.593 62.5833 160 62.5833C160.406 62.5833 160.736 62.2537 160.736 61.8472V54.0417Z" fill="white"/>
<path d="M15.4586 75.7639H7.65311C7.24656 75.7639 6.91699 76.0935 6.91699 76.5C6.91699 76.9066 7.24656 77.2361 7.65311 77.2361H15.4586C15.8652 77.2361 16.1948 76.9066 16.1948 76.5C16.1948 76.0935 15.8652 75.7639 15.4586 75.7639Z" fill="white"/>
<path d="M12.2916 72.5972C12.2916 72.1907 11.962 71.8611 11.5555 71.8611C11.1489 71.8611 10.8193 72.1907 10.8193 72.5972V80.4027C10.8193 80.8093 11.1489 81.1389 11.5555 81.1389C11.962 81.1389 12.2916 80.8093 12.2916 80.4027V72.5972Z" fill="white"/>
<path d="M34.0143 75.7639H26.2088C25.8022 75.7639 25.4727 76.0935 25.4727 76.5C25.4727 76.9066 25.8022 77.2361 26.2088 77.2361H34.0143C34.4209 77.2361 34.7504 76.9066 34.7504 76.5C34.7504 76.0935 34.4209 75.7639 34.0143 75.7639Z" fill="white"/>
<path d="M30.8472 72.5972C30.8472 72.1907 30.5177 71.8611 30.1111 71.8611C29.7046 71.8611 29.375 72.1907 29.375 72.5972V80.4027C29.375 80.8093 29.7046 81.1389 30.1111 81.1389C30.5177 81.1389 30.8472 80.8093 30.8472 80.4027V72.5972Z" fill="white"/>
<path d="M52.57 75.7639H44.7644C44.3579 75.7639 44.0283 76.0935 44.0283 76.5C44.0283 76.9066 44.3579 77.2361 44.7644 77.2361H52.57C52.9765 77.2361 53.3061 76.9066 53.3061 76.5C53.3061 76.0935 52.9765 75.7639 52.57 75.7639Z" fill="white"/>
<path d="M49.4029 72.5972C49.4029 72.1907 49.0733 71.8611 48.6668 71.8611C48.2602 71.8611 47.9307 72.1907 47.9307 72.5972V80.4027C47.9307 80.8093 48.2602 81.1389 48.6668 81.1389C49.0733 81.1389 49.4029 80.8093 49.4029 80.4027V72.5972Z" fill="white"/>
<path d="M71.1256 75.7639H63.3201C62.9135 75.7639 62.584 76.0935 62.584 76.5C62.584 76.9066 62.9135 77.2361 63.3201 77.2361H71.1256C71.5322 77.2361 71.8618 76.9066 71.8618 76.5C71.8618 76.0935 71.5322 75.7639 71.1256 75.7639Z" fill="white"/>
<path d="M67.9586 72.5972C67.9586 72.1907 67.629 71.8611 67.2224 71.8611C66.8159 71.8611 66.4863 72.1907 66.4863 72.5972V80.4027C66.4863 80.8093 66.8159 81.1389 67.2224 81.1389C67.629 81.1389 67.9586 80.8093 67.9586 80.4027V72.5972Z" fill="white"/>
<path d="M89.6803 75.7639H81.8748C81.4683 75.7639 81.1387 76.0935 81.1387 76.5C81.1387 76.9066 81.4683 77.2361 81.8748 77.2361H89.6803C90.0869 77.2361 90.4165 76.9066 90.4165 76.5C90.4165 76.0935 90.0869 75.7639 89.6803 75.7639Z" fill="white"/>
<path d="M86.5142 72.5972C86.5142 72.1907 86.1847 71.8611 85.7781 71.8611C85.3716 71.8611 85.042 72.1907 85.042 72.5972V80.4027C85.042 80.8093 85.3716 81.1389 85.7781 81.1389C86.1847 81.1389 86.5142 80.8093 86.5142 80.4027V72.5972Z" fill="white"/>
<path d="M108.236 75.7639H100.43C100.024 75.7639 99.6943 76.0935 99.6943 76.5C99.6943 76.9066 100.024 77.2361 100.43 77.2361H108.236C108.643 77.2361 108.972 76.9066 108.972 76.5C108.972 76.0935 108.643 75.7639 108.236 75.7639Z" fill="white"/>
<path d="M105.07 72.5972C105.07 72.1907 104.74 71.8611 104.334 71.8611C103.927 71.8611 103.598 72.1907 103.598 72.5972V80.4027C103.598 80.8093 103.927 81.1389 104.334 81.1389C104.74 81.1389 105.07 80.8093 105.07 80.4027V72.5972Z" fill="white"/>
<path d="M126.792 75.7639H118.986C118.58 75.7639 118.25 76.0935 118.25 76.5C118.25 76.9066 118.58 77.2361 118.986 77.2361H126.792C127.198 77.2361 127.528 76.9066 127.528 76.5C127.528 76.0935 127.198 75.7639 126.792 75.7639Z" fill="white"/>
<path d="M123.626 72.5972C123.626 72.1907 123.296 71.8611 122.889 71.8611C122.483 71.8611 122.153 72.1907 122.153 72.5972V80.4027C122.153 80.8093 122.483 81.1389 122.889 81.1389C123.296 81.1389 123.626 80.8093 123.626 80.4027V72.5972Z" fill="white"/>
<path d="M145.347 75.7639H137.542C137.135 75.7639 136.806 76.0935 136.806 76.5C136.806 76.9066 137.135 77.2361 137.542 77.2361H145.347C145.754 77.2361 146.083 76.9066 146.083 76.5C146.083 76.0935 145.754 75.7639 145.347 75.7639Z" fill="white"/>
<path d="M142.181 72.5972C142.181 72.1907 141.852 71.8611 141.445 71.8611C141.039 71.8611 140.709 72.1907 140.709 72.5972V80.4027C140.709 80.8093 141.039 81.1389 141.445 81.1389C141.852 81.1389 142.181 80.8093 142.181 80.4027V72.5972Z" fill="white"/>
<path d="M163.903 75.7639H156.097C155.691 75.7639 155.361 76.0935 155.361 76.5C155.361 76.9066 155.691 77.2361 156.097 77.2361H163.903C164.31 77.2361 164.639 76.9066 164.639 76.5C164.639 76.0935 164.31 75.7639 163.903 75.7639Z" fill="white"/>
<path d="M160.736 72.5972C160.736 72.1907 160.406 71.8611 160 71.8611C159.593 71.8611 159.264 72.1907 159.264 72.5972V80.4027C159.264 80.8093 159.593 81.1389 160 81.1389C160.406 81.1389 160.736 80.8093 160.736 80.4027V72.5972Z" fill="white"/>
<path d="M15.4586 94.3195H7.65311C7.24656 94.3195 6.91699 94.649 6.91699 95.0556C6.91699 95.4621 7.24656 95.7917 7.65311 95.7917H15.4586C15.8652 95.7917 16.1948 95.4621 16.1948 95.0556C16.1948 94.649 15.8652 94.3195 15.4586 94.3195Z" fill="white"/>
<path d="M12.2916 91.1528C12.2916 90.7463 11.962 90.4167 11.5555 90.4167C11.1489 90.4167 10.8193 90.7463 10.8193 91.1528V98.9583C10.8193 99.3649 11.1489 99.6945 11.5555 99.6945C11.962 99.6945 12.2916 99.3649 12.2916 98.9583V91.1528Z" fill="white"/>
<path d="M34.0143 94.3195H26.2088C25.8022 94.3195 25.4727 94.649 25.4727 95.0556C25.4727 95.4621 25.8022 95.7917 26.2088 95.7917H34.0143C34.4209 95.7917 34.7504 95.4621 34.7504 95.0556C34.7504 94.649 34.4209 94.3195 34.0143 94.3195Z" fill="white"/>
<path d="M30.8472 91.1528C30.8472 90.7463 30.5177 90.4167 30.1111 90.4167C29.7046 90.4167 29.375 90.7463 29.375 91.1528V98.9583C29.375 99.3649 29.7046 99.6945 30.1111 99.6945C30.5177 99.6945 30.8472 99.3649 30.8472 98.9583V91.1528Z" fill="white"/>
<path d="M52.57 94.3195H44.7644C44.3579 94.3195 44.0283 94.649 44.0283 95.0556C44.0283 95.4621 44.3579 95.7917 44.7644 95.7917H52.57C52.9765 95.7917 53.3061 95.4621 53.3061 95.0556C53.3061 94.649 52.9765 94.3195 52.57 94.3195Z" fill="white"/>
<path d="M49.4029 91.1528C49.4029 90.7463 49.0733 90.4167 48.6668 90.4167C48.2602 90.4167 47.9307 90.7463 47.9307 91.1528V98.9583C47.9307 99.3649 48.2602 99.6945 48.6668 99.6945C49.0733 99.6945 49.4029 99.3649 49.4029 98.9583V91.1528Z" fill="white"/>
<path d="M71.1256 94.3195H63.3201C62.9135 94.3195 62.584 94.649 62.584 95.0556C62.584 95.4621 62.9135 95.7917 63.3201 95.7917H71.1256C71.5322 95.7917 71.8618 95.4621 71.8618 95.0556C71.8618 94.649 71.5322 94.3195 71.1256 94.3195Z" fill="white"/>
<path d="M67.9586 91.1528C67.9586 90.7463 67.629 90.4167 67.2224 90.4167C66.8159 90.4167 66.4863 90.7463 66.4863 91.1528V98.9583C66.4863 99.3649 66.8159 99.6945 67.2224 99.6945C67.629 99.6945 67.9586 99.3649 67.9586 98.9583V91.1528Z" fill="white"/>
<path d="M89.6803 94.3195H81.8748C81.4683 94.3195 81.1387 94.649 81.1387 95.0556C81.1387 95.4621 81.4683 95.7917 81.8748 95.7917H89.6803C90.0869 95.7917 90.4165 95.4621 90.4165 95.0556C90.4165 94.649 90.0869 94.3195 89.6803 94.3195Z" fill="white"/>
<path d="M86.5142 91.1528C86.5142 90.7463 86.1847 90.4167 85.7781 90.4167C85.3716 90.4167 85.042 90.7463 85.042 91.1528V98.9583C85.042 99.3649 85.3716 99.6945 85.7781 99.6945C86.1847 99.6945 86.5142 99.3649 86.5142 98.9583V91.1528Z" fill="white"/>
<path d="M108.236 94.3195H100.43C100.024 94.3195 99.6943 94.649 99.6943 95.0556C99.6943 95.4621 100.024 95.7917 100.43 95.7917H108.236C108.643 95.7917 108.972 95.4621 108.972 95.0556C108.972 94.649 108.643 94.3195 108.236 94.3195Z" fill="white"/>
<path d="M105.07 91.1528C105.07 90.7463 104.74 90.4167 104.334 90.4167C103.927 90.4167 103.598 90.7463 103.598 91.1528V98.9583C103.598 99.3649 103.927 99.6945 104.334 99.6945C104.74 99.6945 105.07 99.3649 105.07 98.9583V91.1528Z" fill="white"/>
<path d="M126.792 94.3195H118.986C118.58 94.3195 118.25 94.649 118.25 95.0556C118.25 95.4621 118.58 95.7917 118.986 95.7917H126.792C127.198 95.7917 127.528 95.4621 127.528 95.0556C127.528 94.649 127.198 94.3195 126.792 94.3195Z" fill="white"/>
<path d="M123.626 91.1528C123.626 90.7463 123.296 90.4167 122.889 90.4167C122.483 90.4167 122.153 90.7463 122.153 91.1528V98.9583C122.153 99.3649 122.483 99.6945 122.889 99.6945C123.296 99.6945 123.626 99.3649 123.626 98.9583V91.1528Z" fill="white"/>
<path d="M145.347 94.3195H137.542C137.135 94.3195 136.806 94.649 136.806 95.0556C136.806 95.4621 137.135 95.7917 137.542 95.7917H145.347C145.754 95.7917 146.083 95.4621 146.083 95.0556C146.083 94.649 145.754 94.3195 145.347 94.3195Z" fill="white"/>
<path d="M142.181 91.1528C142.181 90.7463 141.852 90.4167 141.445 90.4167C141.039 90.4167 140.709 90.7463 140.709 91.1528V98.9583C140.709 99.3649 141.039 99.6945 141.445 99.6945C141.852 99.6945 142.181 99.3649 142.181 98.9583V91.1528Z" fill="white"/>
<path d="M163.903 94.3195H156.097C155.691 94.3195 155.361 94.649 155.361 95.0556C155.361 95.4621 155.691 95.7917 156.097 95.7917H163.903C164.31 95.7917 164.639 95.4621 164.639 95.0556C164.639 94.649 164.31 94.3195 163.903 94.3195Z" fill="white"/>
<path d="M160.736 91.1528C160.736 90.7463 160.406 90.4167 160 90.4167C159.593 90.4167 159.264 90.7463 159.264 91.1528V98.9583C159.264 99.3649 159.593 99.6945 160 99.6945C160.406 99.6945 160.736 99.3649 160.736 98.9583V91.1528Z" fill="white"/>
<path d="M15.4586 112.875H7.65311C7.24656 112.875 6.91699 113.205 6.91699 113.611C6.91699 114.018 7.24656 114.347 7.65311 114.347H15.4586C15.8652 114.347 16.1948 114.018 16.1948 113.611C16.1948 113.205 15.8652 112.875 15.4586 112.875Z" fill="white"/>
<path d="M12.2916 109.708C12.2916 109.302 11.962 108.972 11.5555 108.972C11.1489 108.972 10.8193 109.302 10.8193 109.708V117.514C10.8193 117.92 11.1489 118.25 11.5555 118.25C11.962 118.25 12.2916 117.92 12.2916 117.514V109.708Z" fill="white"/>
<path d="M34.0143 112.875H26.2088C25.8022 112.875 25.4727 113.205 25.4727 113.611C25.4727 114.018 25.8022 114.347 26.2088 114.347H34.0143C34.4209 114.347 34.7504 114.018 34.7504 113.611C34.7504 113.205 34.4209 112.875 34.0143 112.875Z" fill="white"/>
<path d="M30.8472 109.708C30.8472 109.302 30.5177 108.972 30.1111 108.972C29.7046 108.972 29.375 109.302 29.375 109.708V117.514C29.375 117.92 29.7046 118.25 30.1111 118.25C30.5177 118.25 30.8472 117.92 30.8472 117.514V109.708Z" fill="white"/>
<path d="M52.57 112.875H44.7644C44.3579 112.875 44.0283 113.205 44.0283 113.611C44.0283 114.018 44.3579 114.347 44.7644 114.347H52.57C52.9765 114.347 53.3061 114.018 53.3061 113.611C53.3061 113.205 52.9765 112.875 52.57 112.875Z" fill="white"/>
<path d="M49.4029 109.708C49.4029 109.302 49.0733 108.972 48.6668 108.972C48.2602 108.972 47.9307 109.302 47.9307 109.708V117.514C47.9307 117.92 48.2602 118.25 48.6668 118.25C49.0733 118.25 49.4029 117.92 49.4029 117.514V109.708Z" fill="white"/>
<path d="M71.1256 112.875H63.3201C62.9135 112.875 62.584 113.205 62.584 113.611C62.584 114.018 62.9135 114.347 63.3201 114.347H71.1256C71.5322 114.347 71.8618 114.018 71.8618 113.611C71.8618 113.205 71.5322 112.875 71.1256 112.875Z" fill="white"/>
<path d="M67.9586 109.708C67.9586 109.302 67.629 108.972 67.2224 108.972C66.8159 108.972 66.4863 109.302 66.4863 109.708V117.514C66.4863 117.92 66.8159 118.25 67.2224 118.25C67.629 118.25 67.9586 117.92 67.9586 117.514V109.708Z" fill="white"/>
<path d="M89.6803 112.875H81.8748C81.4683 112.875 81.1387 113.205 81.1387 113.611C81.1387 114.018 81.4683 114.347 81.8748 114.347H89.6803C90.0869 114.347 90.4165 114.018 90.4165 113.611C90.4165 113.205 90.0869 112.875 89.6803 112.875Z" fill="white"/>
<path d="M86.5142 109.708C86.5142 109.302 86.1847 108.972 85.7781 108.972C85.3716 108.972 85.042 109.302 85.042 109.708V117.514C85.042 117.92 85.3716 118.25 85.7781 118.25C86.1847 118.25 86.5142 117.92 86.5142 117.514V109.708Z" fill="white"/>
<path d="M108.236 112.875H100.43C100.024 112.875 99.6943 113.205 99.6943 113.611C99.6943 114.018 100.024 114.347 100.43 114.347H108.236C108.643 114.347 108.972 114.018 108.972 113.611C108.972 113.205 108.643 112.875 108.236 112.875Z" fill="white"/>
<path d="M105.07 109.708C105.07 109.302 104.74 108.972 104.334 108.972C103.927 108.972 103.598 109.302 103.598 109.708V117.514C103.598 117.92 103.927 118.25 104.334 118.25C104.74 118.25 105.07 117.92 105.07 117.514V109.708Z" fill="white"/>
<path d="M126.792 112.875H118.986C118.58 112.875 118.25 113.205 118.25 113.611C118.25 114.018 118.58 114.347 118.986 114.347H126.792C127.198 114.347 127.528 114.018 127.528 113.611C127.528 113.205 127.198 112.875 126.792 112.875Z" fill="white"/>
<path d="M123.626 109.708C123.626 109.302 123.296 108.972 122.889 108.972C122.483 108.972 122.153 109.302 122.153 109.708V117.514C122.153 117.92 122.483 118.25 122.889 118.25C123.296 118.25 123.626 117.92 123.626 117.514V109.708Z" fill="white"/>
<path d="M145.347 112.875H137.542C137.135 112.875 136.806 113.205 136.806 113.611C136.806 114.018 137.135 114.347 137.542 114.347H145.347C145.754 114.347 146.083 114.018 146.083 113.611C146.083 113.205 145.754 112.875 145.347 112.875Z" fill="white"/>
<path d="M142.181 109.708C142.181 109.302 141.852 108.972 141.445 108.972C141.039 108.972 140.709 109.302 140.709 109.708V117.514C140.709 117.92 141.039 118.25 141.445 118.25C141.852 118.25 142.181 117.92 142.181 117.514V109.708Z" fill="white"/>
<path d="M163.903 112.875H156.097C155.691 112.875 155.361 113.205 155.361 113.611C155.361 114.018 155.691 114.347 156.097 114.347H163.903C164.31 114.347 164.639 114.018 164.639 113.611C164.639 113.205 164.31 112.875 163.903 112.875Z" fill="white"/>
<path d="M160.736 109.708C160.736 109.302 160.406 108.972 160 108.972C159.593 108.972 159.264 109.302 159.264 109.708V117.514C159.264 117.92 159.593 118.25 160 118.25C160.406 118.25 160.736 117.92 160.736 117.514V109.708Z" fill="white"/>
<path d="M15.4586 131.431H7.65311C7.24656 131.431 6.91699 131.76 6.91699 132.167C6.91699 132.573 7.24656 132.903 7.65311 132.903H15.4586C15.8652 132.903 16.1948 132.573 16.1948 132.167C16.1948 131.76 15.8652 131.431 15.4586 131.431Z" fill="white"/>
<path d="M12.2916 128.264C12.2916 127.857 11.962 127.528 11.5555 127.528C11.1489 127.528 10.8193 127.857 10.8193 128.264V136.069C10.8193 136.476 11.1489 136.806 11.5555 136.806C11.962 136.806 12.2916 136.476 12.2916 136.069V128.264Z" fill="white"/>
<path d="M34.0143 131.431H26.2088C25.8022 131.431 25.4727 131.76 25.4727 132.167C25.4727 132.573 25.8022 132.903 26.2088 132.903H34.0143C34.4209 132.903 34.7504 132.573 34.7504 132.167C34.7504 131.76 34.4209 131.431 34.0143 131.431Z" fill="white"/>
<path d="M30.8472 128.264C30.8472 127.857 30.5177 127.528 30.1111 127.528C29.7046 127.528 29.375 127.857 29.375 128.264V136.069C29.375 136.476 29.7046 136.806 30.1111 136.806C30.5177 136.806 30.8472 136.476 30.8472 136.069V128.264Z" fill="white"/>
<path d="M52.57 131.431H44.7644C44.3579 131.431 44.0283 131.76 44.0283 132.167C44.0283 132.573 44.3579 132.903 44.7644 132.903H52.57C52.9765 132.903 53.3061 132.573 53.3061 132.167C53.3061 131.76 52.9765 131.431 52.57 131.431Z" fill="white"/>
<path d="M49.4029 128.264C49.4029 127.857 49.0733 127.528 48.6668 127.528C48.2602 127.528 47.9307 127.857 47.9307 128.264V136.069C47.9307 136.476 48.2602 136.806 48.6668 136.806C49.0733 136.806 49.4029 136.476 49.4029 136.069V128.264Z" fill="white"/>
<path d="M71.1256 131.431H63.3201C62.9135 131.431 62.584 131.76 62.584 132.167C62.584 132.573 62.9135 132.903 63.3201 132.903H71.1256C71.5322 132.903 71.8618 132.573 71.8618 132.167C71.8618 131.76 71.5322 131.431 71.1256 131.431Z" fill="white"/>
<path d="M67.9586 128.264C67.9586 127.857 67.629 127.528 67.2224 127.528C66.8159 127.528 66.4863 127.857 66.4863 128.264V136.069C66.4863 136.476 66.8159 136.806 67.2224 136.806C67.629 136.806 67.9586 136.476 67.9586 136.069V128.264Z" fill="white"/>
<path d="M89.6803 131.431H81.8748C81.4683 131.431 81.1387 131.76 81.1387 132.167C81.1387 132.573 81.4683 132.903 81.8748 132.903H89.6803C90.0869 132.903 90.4165 132.573 90.4165 132.167C90.4165 131.76 90.0869 131.431 89.6803 131.431Z" fill="white"/>
<path d="M86.5142 128.264C86.5142 127.857 86.1847 127.528 85.7781 127.528C85.3716 127.528 85.042 127.857 85.042 128.264V136.069C85.042 136.476 85.3716 136.806 85.7781 136.806C86.1847 136.806 86.5142 136.476 86.5142 136.069V128.264Z" fill="white"/>
<path d="M108.236 131.431H100.43C100.024 131.431 99.6943 131.76 99.6943 132.167C99.6943 132.573 100.024 132.903 100.43 132.903H108.236C108.643 132.903 108.972 132.573 108.972 132.167C108.972 131.76 108.643 131.431 108.236 131.431Z" fill="white"/>
<path d="M105.07 128.264C105.07 127.857 104.74 127.528 104.334 127.528C103.927 127.528 103.598 127.857 103.598 128.264V136.069C103.598 136.476 103.927 136.806 104.334 136.806C104.74 136.806 105.07 136.476 105.07 136.069V128.264Z" fill="white"/>
<path d="M126.792 131.431H118.986C118.58 131.431 118.25 131.76 118.25 132.167C118.25 132.573 118.58 132.903 118.986 132.903H126.792C127.198 132.903 127.528 132.573 127.528 132.167C127.528 131.76 127.198 131.431 126.792 131.431Z" fill="white"/>
<path d="M123.626 128.264C123.626 127.857 123.296 127.528 122.889 127.528C122.483 127.528 122.153 127.857 122.153 128.264V136.069C122.153 136.476 122.483 136.806 122.889 136.806C123.296 136.806 123.626 136.476 123.626 136.069V128.264Z" fill="white"/>
<path d="M145.347 131.431H137.542C137.135 131.431 136.806 131.76 136.806 132.167C136.806 132.573 137.135 132.903 137.542 132.903H145.347C145.754 132.903 146.083 132.573 146.083 132.167C146.083 131.76 145.754 131.431 145.347 131.431Z" fill="white"/>
<path d="M142.181 128.264C142.181 127.857 141.852 127.528 141.445 127.528C141.039 127.528 140.709 127.857 140.709 128.264V136.069C140.709 136.476 141.039 136.806 141.445 136.806C141.852 136.806 142.181 136.476 142.181 136.069V128.264Z" fill="white"/>
<path d="M163.903 131.431H156.097C155.691 131.431 155.361 131.76 155.361 132.167C155.361 132.573 155.691 132.903 156.097 132.903H163.903C164.31 132.903 164.639 132.573 164.639 132.167C164.639 131.76 164.31 131.431 163.903 131.431Z" fill="white"/>
<path d="M160.736 128.264C160.736 127.857 160.406 127.528 160 127.528C159.593 127.528 159.264 127.857 159.264 128.264V136.069C159.264 136.476 159.593 136.806 160 136.806C160.406 136.806 160.736 136.476 160.736 136.069V128.264Z" fill="white"/>
<path d="M15.4586 149.986H7.65311C7.24656 149.986 6.91699 150.316 6.91699 150.722C6.91699 151.129 7.24656 151.458 7.65311 151.458H15.4586C15.8652 151.458 16.1948 151.129 16.1948 150.722C16.1948 150.316 15.8652 149.986 15.4586 149.986Z" fill="white"/>
<path d="M12.2916 146.819C12.2916 146.413 11.962 146.083 11.5555 146.083C11.1489 146.083 10.8193 146.413 10.8193 146.819V154.625C10.8193 155.032 11.1489 155.361 11.5555 155.361C11.962 155.361 12.2916 155.032 12.2916 154.625V146.819Z" fill="white"/>
<path d="M34.0143 149.986H26.2088C25.8022 149.986 25.4727 150.316 25.4727 150.722C25.4727 151.129 25.8022 151.458 26.2088 151.458H34.0143C34.4209 151.458 34.7504 151.129 34.7504 150.722C34.7504 150.316 34.4209 149.986 34.0143 149.986Z" fill="white"/>
<path d="M30.8472 146.819C30.8472 146.413 30.5177 146.083 30.1111 146.083C29.7046 146.083 29.375 146.413 29.375 146.819V154.625C29.375 155.032 29.7046 155.361 30.1111 155.361C30.5177 155.361 30.8472 155.032 30.8472 154.625V146.819Z" fill="white"/>
<path d="M52.57 149.986H44.7644C44.3579 149.986 44.0283 150.316 44.0283 150.722C44.0283 151.129 44.3579 151.458 44.7644 151.458H52.57C52.9765 151.458 53.3061 151.129 53.3061 150.722C53.3061 150.316 52.9765 149.986 52.57 149.986Z" fill="white"/>
<path d="M49.4029 146.819C49.4029 146.413 49.0733 146.083 48.6668 146.083C48.2602 146.083 47.9307 146.413 47.9307 146.819V154.625C47.9307 155.032 48.2602 155.361 48.6668 155.361C49.0733 155.361 49.4029 155.032 49.4029 154.625V146.819Z" fill="white"/>
<path d="M71.1256 149.986H63.3201C62.9135 149.986 62.584 150.316 62.584 150.722C62.584 151.129 62.9135 151.458 63.3201 151.458H71.1256C71.5322 151.458 71.8618 151.129 71.8618 150.722C71.8618 150.316 71.5322 149.986 71.1256 149.986Z" fill="white"/>
<path d="M67.9586 146.819C67.9586 146.413 67.629 146.083 67.2224 146.083C66.8159 146.083 66.4863 146.413 66.4863 146.819V154.625C66.4863 155.032 66.8159 155.361 67.2224 155.361C67.629 155.361 67.9586 155.032 67.9586 154.625V146.819Z" fill="white"/>
<path d="M89.6803 149.986H81.8748C81.4683 149.986 81.1387 150.316 81.1387 150.722C81.1387 151.129 81.4683 151.458 81.8748 151.458H89.6803C90.0869 151.458 90.4165 151.129 90.4165 150.722C90.4165 150.316 90.0869 149.986 89.6803 149.986Z" fill="white"/>
<path d="M86.5142 146.819C86.5142 146.413 86.1847 146.083 85.7781 146.083C85.3716 146.083 85.042 146.413 85.042 146.819V154.625C85.042 155.032 85.3716 155.361 85.7781 155.361C86.1847 155.361 86.5142 155.032 86.5142 154.625V146.819Z" fill="white"/>
<path d="M108.236 149.986H100.43C100.024 149.986 99.6943 150.316 99.6943 150.722C99.6943 151.129 100.024 151.458 100.43 151.458H108.236C108.643 151.458 108.972 151.129 108.972 150.722C108.972 150.316 108.643 149.986 108.236 149.986Z" fill="white"/>
<path d="M105.07 146.819C105.07 146.413 104.74 146.083 104.334 146.083C103.927 146.083 103.598 146.413 103.598 146.819V154.625C103.598 155.032 103.927 155.361 104.334 155.361C104.74 155.361 105.07 155.032 105.07 154.625V146.819Z" fill="white"/>
<path d="M126.792 149.986H118.986C118.58 149.986 118.25 150.316 118.25 150.722C118.25 151.129 118.58 151.458 118.986 151.458H126.792C127.198 151.458 127.528 151.129 127.528 150.722C127.528 150.316 127.198 149.986 126.792 149.986Z" fill="white"/>
<path d="M123.626 146.819C123.626 146.413 123.296 146.083 122.889 146.083C122.483 146.083 122.153 146.413 122.153 146.819V154.625C122.153 155.032 122.483 155.361 122.889 155.361C123.296 155.361 123.626 155.032 123.626 154.625V146.819Z" fill="white"/>
<path d="M145.347 149.986H137.542C137.135 149.986 136.806 150.316 136.806 150.722C136.806 151.129 137.135 151.458 137.542 151.458H145.347C145.754 151.458 146.083 151.129 146.083 150.722C146.083 150.316 145.754 149.986 145.347 149.986Z" fill="white"/>
<path d="M142.181 146.819C142.181 146.413 141.852 146.083 141.445 146.083C141.039 146.083 140.709 146.413 140.709 146.819V154.625C140.709 155.032 141.039 155.361 141.445 155.361C141.852 155.361 142.181 155.032 142.181 154.625V146.819Z" fill="white"/>
<path d="M163.903 149.986H156.097C155.691 149.986 155.361 150.316 155.361 150.722C155.361 151.129 155.691 151.458 156.097 151.458H163.903C164.31 151.458 164.639 151.129 164.639 150.722C164.639 150.316 164.31 149.986 163.903 149.986Z" fill="white"/>
<path d="M160.736 146.819C160.736 146.413 160.406 146.083 160 146.083C159.593 146.083 159.264 146.413 159.264 146.819V154.625C159.264 155.032 159.593 155.361 160 155.361C160.406 155.361 160.736 155.032 160.736 154.625V146.819Z" fill="white"/>
</g>
<defs>
<clipPath id="clip0_188_9061">
<rect width="334" height="334" fill="white" transform="translate(-174 -90.5)"/>
</clipPath>
</defs>
</svg>
